<svg xmlns="http://www.w3.org/2000/svg" viewBox="0 0 1000 650" fill="none">
  <defs>
    <linearGradient id="bg" x1="80" y1="34" x2="930" y2="620" gradientUnits="userSpaceOnUse"><stop stop-color="#071B43"/><stop offset=".58" stop-color="#0A5B78"/><stop offset="1" stop-color="#13A996"/></linearGradient>
    <radialGradient id="glow" cx="0" cy="0" r="1" gradientTransform="matrix(0 250 -280 0 704 326)" gradientUnits="userSpaceOnUse"><stop stop-color="#68F4DE" stop-opacity=".58"/><stop offset="1" stop-color="#40D9E9" stop-opacity="0"/></radialGradient>
    <linearGradient id="line" x1="245" y1="160" x2="778" y2="488" gradientUnits="userSpaceOnUse"><stop stop-color="#9CFFF1"/><stop offset="1" stop-color="#67A8FF"/></linearGradient>
    <linearGradient id="screen" x1="525" y1="160" x2="860" y2="500" gradientUnits="userSpaceOnUse"><stop stop-color="#183369"/><stop offset="1" stop-color="#0A173B"/></linearGradient>
  </defs>
  <rect width="1000" height="650" rx="34" fill="url(#bg)"/><circle cx="704" cy="326" r="280" fill="url(#glow)"/>
  <g stroke="#B8FFF5" stroke-opacity=".35" stroke-width="2"><path d="M172 196h142l70 70h121m-297 183h176l75-75h116m291-174h-73l-61 61h-54m204 186h-93l-67-67h-46"/><path d="M503 101v94l54 54m-9 285v-83l49-49"/></g>
  <g fill="#B8FFF5"><circle cx="172" cy="196" r="5"/><circle cx="178" cy="449" r="5"/><circle cx="786" cy="196" r="5"/><circle cx="867" cy="445" r="5"/><circle cx="503" cy="101" r="4"/></g>
  <g transform="rotate(-4 679 330)"><rect x="493" y="175" width="368" height="302" rx="20" fill="url(#screen)" stroke="#B9FFF4" stroke-opacity=".42"/><path d="M493 224h368" stroke="#B9FFF4" stroke-opacity=".2"/><circle cx="521" cy="200" r="5" fill="#FF8199"/><circle cx="540" cy="200" r="5" fill="#FFD779"/><circle cx="559" cy="200" r="5" fill="#73EDC8"/><rect x="517" y="249" width="136" height="99" rx="12" fill="#0A1839" stroke="#96CFFF" stroke-opacity=".2"/><circle cx="585" cy="298" r="31" stroke="#6DF3DE" stroke-width="8" stroke-dasharray="145 50" transform="rotate(-90 585 298)"/><circle cx="585" cy="298" r="18" fill="#6DF3DE" fill-opacity=".16"/><path d="M585 281v18l13 8" stroke="#C1FFF7" stroke-width="3" stroke-linecap="round"/><rect x="668" y="249" width="167" height="99" rx="12" fill="#0A1839" stroke="#96CFFF" stroke-opacity=".2"/><path d="M690 321v-21h16v21m14 0v-44h16v44m14 0v-31h16v31m14 0v-54h16v54" fill="#63DFD5" fill-opacity=".72"/><path d="M688 326h126" stroke="#A9C9FF" stroke-opacity=".3"/><rect x="517" y="368" width="318" height="83" rx="12" fill="#0A1839" stroke="#96CFFF" stroke-opacity=".2"/><path d="M541 411c17-28 31 28 49 0s32 28 49 0 32 28 49 0 32 28 49 0 32 28 49 0" stroke="url(#line)" stroke-width="3" stroke-linecap="round"/><circle cx="590" cy="411" r="4" fill="#A8FFF1"/><circle cx="689" cy="411" r="4" fill="#A8FFF1"/><circle cx="787" cy="411" r="4" fill="#A8FFF1"/></g>
  <g><circle cx="298" cy="293" r="53" fill="#092341" stroke="#8FFFF0" stroke-opacity=".7" stroke-width="2"/><path d="M278 288a20 20 0 1 1 31 17v9h-22v-9a20 20 0 0 1-9-17Z" stroke="#AFFFF4" stroke-width="3"/><path d="M286 321h17m-14 8h11" stroke="#70EBD9" stroke-width="3" stroke-linecap="round"/><path d="M231 293h-27m161 0h27m-94-67v-27m0 188v-27" stroke="#AFFFF4" stroke-opacity=".7" stroke-width="2"/><circle cx="201" cy="293" r="7" fill="#69E7D8"/><circle cx="396" cy="293" r="7" fill="#69E7D8"/><circle cx="298" cy="196" r="7" fill="#69E7D8"/><circle cx="298" cy="390" r="7" fill="#69E7D8"/></g>
  <rect x="149" y="485" width="222" height="59" rx="14" fill="#07183A" fill-opacity=".78" stroke="#B8FFF5" stroke-opacity=".3"/><circle cx="180" cy="514" r="8" fill="#66EDC9"/><path d="M201 507h134m-134 15h97" stroke="#B6D5FF" stroke-opacity=".55" stroke-width="5" stroke-linecap="round"/>
</svg>
